HIERARCHY
ROOT Hips
{
  OFFSET -35.4901 99.2528 17.4586
  CHANNELS 6 Xposition Yposition Zposition Zrotation Xrotation Yrotation
  JOINT LeftUpLeg
  {
    OFFSET 8.64259 1.95398 -2.38835
    CHANNELS 3 Zrotation Xrotation Yrotation
    JOINT LeftLeg
    {
      OFFSET 43.7702 0 0
      CHANNELS 3 Zrotation Xrotation Yrotation
      JOINT LeftFoot
      {
        OFFSET 40.6238 0 0
        CHANNELS 3 Zrotation Xrotation Yrotation
        JOINT LeftToeBase
        {
          OFFSET 12.7242 0 0
          CHANNELS 3 Zrotation Xrotation Yrotation
          End Site
          {
            OFFSET 0 0 0
          }
        }
      }
    }
  }
  JOINT RightUpLeg
  {
    OFFSET -8.2249 1.95398 -2.59336
    CHANNELS 3 Zrotation Xrotation Yrotation
    JOINT RightLeg
    {
      OFFSET 43.5653 0 0
      CHANNELS 3 Zrotation Xrotation Yrotation
      JOINT RightFoot
      {
        OFFSET 40.6238 0 0
        CHANNELS 3 Zrotation Xrotation Yrotation
        JOINT RightToeBase
        {
          OFFSET 12.7242 0 0
          CHANNELS 3 Zrotation Xrotation Yrotation
          End Site
          {
            OFFSET 0 0 0
          }
        }
      }
    }
  }
  JOINT Spine
  {
    OFFSET 0.165834 0.87714 6.61349
    CHANNELS 3 Zrotation Xrotation Yrotation
    JOINT Spine1
    {
      OFFSET 7.38963 1.71661e-005 0
      CHANNELS 3 Zrotation Xrotation Yrotation
      JOINT Spine2
      {
        OFFSET 11.9445 1.14441e-005 0
        CHANNELS 3 Zrotation Xrotation Yrotation
        JOINT Spine3
        {
          OFFSET 14.7254 4.19617e-005 0
          CHANNELS 3 Zrotation Xrotation Yrotation
          JOINT Spine4
          {
            OFFSET 10.9679 0 0
            CHANNELS 3 Zrotation Xrotation Yrotation
            JOINT RightShoulder
            {
              OFFSET 2.46616 -1.6653 3.69651
              CHANNELS 3 Zrotation Xrotation Yrotation
              JOINT RightArm
              {
                OFFSET 13.0012 0 0
                CHANNELS 3 Zrotation Xrotation Yrotation
                JOINT RightForeArm
                {
                  OFFSET 28.7848 1.52588e-005 0
                  CHANNELS 3 Zrotation Xrotation Yrotation
                  JOINT RightHand
                  {
                    OFFSET 26.5688 1.52588e-005 0
                    CHANNELS 3 Zrotation Xrotation Yrotation
                    End Site
                    {
                      OFFSET 0 0 0
                    }
                  }
                }
              }
            }
            JOINT LeftShoulder
            {
              OFFSET 2.38034 -1.29275 -3.7523
              CHANNELS 3 Zrotation Xrotation Yrotation
              JOINT LeftArm
              {
                OFFSET 16.3182 6.10351e-005 0
                CHANNELS 3 Zrotation Xrotation Yrotation
                JOINT LeftForeArm
                {
                  OFFSET 27.0901 0 0
                  CHANNELS 3 Zrotation Xrotation Yrotation
                  JOINT LeftHand
                  {
                    OFFSET 24.5451 1.52588e-005 0
                    CHANNELS 3 Zrotation Xrotation Yrotation
                    End Site
                    {
                      OFFSET 0 0 0
                    }
                  }
                }
              }
            }
            JOINT Neck
            {
              OFFSET 5.0226 -0.0266342 0
              CHANNELS 3 Zrotation Xrotation Yrotation
              JOINT Head
              {
                OFFSET 6.69364 2.86102e-005 0
                CHANNELS 3 Zrotation Xrotation Yrotation
                End Site
                {
                  OFFSET 0 0 0
                }
              }
            }
          }
        }
      }
    }
  }
}
MOTION
Frames:	12
Frame Time:	0.0416667
-157.988 98.0875 106.23 103.824 -67.8497 100.907 -177.488 -5.112 91.9842 -5.02365 -7.60221 1.26915 67.6797 4.01922 -4.09825 16.3735 -3.8535 6.14637 168.052 -1.3003 84.2351 -9.47396 -16.1826 -0.878588 65.5741 -3.04896 0.00664461 25.4036 -0.749338 2.31388 0.254905 7.57202 -90.2026 11.7305 0.412016 -0.447137 0.0595596 0.391929 -0.464837 -22.4758 0.527336 -0.302634 -2.46314 0.527346 -0.302636 92.2144 -27.1501 -103.293 45.667 -12.0399 -7.10935 4.5825 -25.4164 -13.8039 -25.528 -0.159342 -7.13815 -82.0641 -50.8805 90.7476 -27.904 16.6705 -15.2106 1.16009 5.92212 -8.04654 0.228687 -0.112495 -5.79489 3.18922 -6.64693 2.65346 -7.06988 -6.79587 -4.71727 
-158.006 98.1045 106.201 103.66 -67.7542 100.719 -177.535 -5.05809 91.9501 -5.08026 -8.66899 1.26085 67.1512 3.75261 -5.77803 16.9188 -4.16633 6.57446 168.065 -1.29683 84.2172 -9.39475 -15.6552 -0.904556 65.8009 -3.113 0.721529 25.7696 -0.27482 1.10644 0.202141 7.55589 -90.1808 11.7625 0.31717 -0.393969 0.0915253 0.299528 -0.407556 -22.4437 0.420907 -0.280439 -2.43101 0.420905 -0.280438 91.7007 -28.1731 -104 44.3759 -12.3239 -7.35959 4.73268 -24.3334 -13.5508 -25.1299 -0.0350455 -7.66824 -82.8504 -50.816 89.5634 -27.7743 16.6576 -13.9614 0.992166 4.14742 -9.01774 -0.484751 -0.112475 -5.89807 2.95704 -6.42885 2.23325 -6.75524 -6.53515 -4.34475 
-158.014 98.0651 106.177 103.859 -67.7349 100.9 -177.591 -5.11927 91.9372 -5.11483 -8.38451 1.38302 68.2387 4.19551 -5.63013 15.7195 -4.63177 7.15857 168.045 -1.17596 84.1667 -9.73553 -15.5396 -0.889901 66.2635 -3.22872 1.6472 24.2431 -0.011 0.631395 0.210334 7.55688 -90.1838 11.7606 0.332042 -0.401438 0.0896272 0.314042 -0.415669 -22.4456 0.437328 -0.283089 -2.43294 0.43733 -0.283087 91.7897 -28.1433 -103.827 44.4021 -12.3598 -7.41511 4.82624 -24.4586 -13.3835 -25.189 -0.0267004 -7.72448 -82.6647 -50.7488 89.8362 -27.7574 17.4074 -14.0173 0.426418 2.57922 -9.10973 -1.52837 -0.11183 -7.11287 3.16519 -6.30746 2.24709 -6.97387 -6.41903 -4.19526 
-158.086 98.0809 106.21 104.144 -67.5792 101.377 -177.556 -5.24286 92.1942 -5.04094 -8.3834 1.61451 68.0584 4.09555 -5.99244 16.0027 -4.37487 6.83203 168.249 -1.52974 84.4821 -9.53507 -15.4483 -0.943513 66.0623 -3.19283 1.32301 24.407 -0.00776831 0.605689 0.203816 7.56172 -90.1993 11.7509 0.311775 -0.430231 0.079918 0.292539 -0.443534 -22.4552 0.426651 -0.316639 -2.44254 0.42666 -0.316635 91.8452 -28.2049 -103.691 44.3998 -12.5458 -7.52658 4.92711 -24.6381 -13.2497 -25.263 -0.0827277 -7.45153 -82.4621 -50.845 90.148 -27.1346 17.8845 -14.1555 0.13904 2.18044 -9.24371 -1.37051 -0.118343 -7.53361 3.00023 -6.30842 2.21589 -6.9575 -6.40641 -4.36025 
-158.164 98.0901 106.234 104.668 -67.5141 101.793 -177.445 -5.36955 92.2179 -5.16244 -8.06141 1.46994 67.8373 4.06299 -5.55936 15.6967 -4.2496 6.65393 168.287 -1.45601 84.4881 -10.1862 -15.5773 -0.984677 66.4705 -3.38503 0.941758 23.8904 -0.00912058 0.670915 0.208295 7.56934 -90.2085 11.7357 0.316544 -0.448881 0.0647015 0.296484 -0.462397 -22.4704 0.43681 -0.333 -2.45774 0.436818 -0.333002 91.7981 -27.9129 -103.891 44.6736 -12.216 -7.37358 4.73255 -24.8226 -13.0194 -25.3609 -0.0711275 -7.53155 -82.5083 -51.5037 90.1345 -26.6612 17.5414 -13.8924 0.284899 2.40961 -9.53982 -0.799379 -0.132412 -7.41998 2.69868 -6.14451 2.76216 -6.93431 -6.31524 -4.71613 
-158.27 98.1033 106.296 104.797 -67.2739 101.691 -177.642 -5.45738 92.0095 -5.14446 -8.03464 1.69209 67.7441 4.01914 -5.72909 16.3617 -4.40275 6.88359 168.2 -1.42034 84.3425 -10.4981 -15.3625 -0.992858 66.7099 -3.4713 0.953113 23.6367 0.012996 0.648629 0.210326 7.55261 -90.1913 11.7691 0.328364 -0.416056 0.0981546 0.309731 -0.430111 -22.437 0.438233 -0.298133 -2.42438 0.438229 -0.298141 91.8469 -27.96 -103.774 44.7638 -12.371 -7.10159 4.63069 -24.6103 -13.4463 -24.9317 -0.0963339 -7.4081 -82.2919 -50.9268 90.4098 -26.9517 17.8529 -14.0273 0.0383895 2.11417 -9.1855 -0.530944 -0.140658 -7.50087 2.17834 -6.20671 2.77958 -6.82761 -6.38656 -4.43956 
-158.458 98.0957 106.437 105.364 -67.0572 102.193 -177.562 -5.73013 92.1387 -5.15587 -7.72933 1.7664 67.9124 4.09737 -5.53521 16.2477 -4.32217 6.77328 168.27 -1.6968 84.4472 -10.6969 -15.1528 -1.03637 66.8571 -3.49789 0.915315 23.6874 -0.00464538 0.68432 0.243139 7.58684 -90.2046 11.7008 0.387673 -0.448286 0.0297964 0.367572 -0.46492 -22.5055 0.504476 -0.311055 -2.49284 0.504479 -0.311047 91.9531 -27.4872 -103.72 45.5331 -12.2827 -7.11788 4.27892 -24.7245 -13.5871 -24.7758 -0.208013 -6.85744 -82.5076 -50.5774 90.0568 -27.6222 16.9702 -13.9749 0.606931 3.03028 -8.92324 -0.763086 -0.136352 -7.63617 1.8942 -6.11958 2.89745 -6.77061 -6.32416 -4.26842 
-158.762 98.0868 106.647 105.617 -66.74 102.43 -177.289 -5.93105 92.4716 -5.27252 -7.22166 1.67816 68.0252 4.10833 -6.54455 16.3515 -6.20944 9.30553 168.585 -2.03776 84.7987 -10.774 -14.391 -1.19557 67.0949 -3.55967 0.941203 23.4617 0.0117763 0.672175 0.240054 7.61825 -90.261 11.6381 0.355253 -0.557073 -0.03294 0.330403 -0.572181 -22.5679 0.506245 -0.424554 -2.55523 0.506254 -0.424552 92.2161 -26.5747 -103.492 46.1646 -12.1896 -7.34763 4.94869 -24.1856 -13.3375 -24.7512 0.0118395 -7.94108 -81.8275 -51.873 91.1719 -25.6514 17.5986 -14.4438 0.105576 2.59557 -8.88165 -0.877079 -0.139563 -7.94785 2.13835 -5.91273 3.64208 -7.4264 -6.21891 -4.26795 
-159.203 98.0724 106.936 105.817 -65.8853 102.489 -176.709 -5.98477 93.0911 -5.50697 -5.93596 1.30439 68.1718 4.21642 -6.31735 16.5042 -5.77979 8.74508 168.817 -2.40003 85.136 -11.1874 -13.4568 -1.27064 67.4507 -3.6463 0.69795 23.3101 0.0228951 0.663908 0.223502 7.6217 -90.2788 11.631 0.313916 -0.58816 -0.0400791 0.287735 -0.601418 -22.5748 0.476177 -0.466626 -2.56216 0.476176 -0.46663 91.9666 -26.8032 -103.935 45.9055 -11.8775 -7.04456 4.95083 -23.8718 -12.8674 -24.8509 0.071206 -8.1947 -82.3326 -50.8534 90.3428 -27.3436 16.3729 -13.0793 0.659415 1.8766 -9.37626 0.89893 -0.12413 -5.54656 0.754355 -5.86493 3.58156 -6.72077 -6.15951 -4.12061 
-159.876 98.0579 107.129 104.988 -64.83 101.715 -175.885 -5.18429 93.9802 -5.98182 -2.93286 0.707577 67.5466 4.18667 -3.98525 17.0313 -4.25768 6.71578 169.148 -2.52511 85.8079 -11.1788 -12.1778 -1.18555 67.5428 -3.63383 0.312032 22.9799 -0.00070085 0.757325 0.312637 7.65645 -90.256 11.562 0.502196 -0.561722 -0.108996 0.476985 -0.583294 -22.6444 0.647797 -0.384827 -2.63174 0.647796 -0.38483 91.5084 -28.585 -104.248 44.279 -11.8465 -6.57633 4.61313 -22.8865 -13.5169 -24.1216 0.2339 -9.02566 -82.2701 -49.2532 90.3029 -28.1177 15.9256 -13.7731 1.24049 3.41498 -8.91852 -0.845713 -0.124624 -6.84231 0.635089 -5.97385 2.78192 -6.85255 -6.15174 -3.94908 
-160.802 98.0101 107.025 102.164 -63.0058 98.577 -175.939 -3.36013 94.088 -6.35868 -0.427681 0.672396 67.1447 4.1085 -3.43627 17.505 -4.12122 6.54516 169.505 -1.15679 86.207 -11.9996 -10.1035 -1.12393 67.8371 -3.50473 -0.315991 22.4477 -0.225679 1.33342 0.416081 7.67779 -90.2727 11.52 0.700318 -0.614879 -0.150894 0.67257 -0.645108 -22.687 0.852735 -0.375971 -2.67439 0.85273 -0.375972 91.6016 -28.7059 -104.015 43.9529 -11.7939 -6.56236 4.71163 -22.7334 -13.2882 -23.9941 0.17563 -8.70806 -82.6794 -48.5074 89.6111 -28.7594 15.353 -14.4324 1.65436 2.99431 -9.34389 -0.285121 -0.14389 -7.20688 0.662337 -5.18966 2.90891 -6.73291 -5.46288 -2.28777 
-161.914 97.9594 106.391 98.672 -59.08 94.0698 -176.305 -0.276268 93.4723 -7.23662 3.2482 0.416769 66.0494 3.83963 -4.64618 17.0654 -4.6659 7.26917 168.92 1.04699 85.7032 -13.4123 -6.88832 -0.519547 68.368 -3.38894 -0.917822 22.1545 -0.541874 2.08496 0.45314 7.73196 -90.3526 11.4122 0.737043 -0.776704 -0.258795 0.702133 -0.808398 -22.7947 0.936387 -0.519289 -2.78202 0.936402 -0.519291 91.7931 -27.9546 -103.886 43.797 -11.8917 -6.23066 4.81232 -21.905 -13.2804 -25.4324 0.0143358 -7.56227 -82.7155 -49.6303 89.6589 -27.4434 15.2199 -15.1939 2.17149 3.29345 -11.3642 -1.31046 -0.126753 -8.41454 0.0428356 -2.30993 6.53215 -8.49021 -3.14494 -1.21205 
